<svg width="80" height="77" viewBox="0 0 80 77" fill="none" xmlns="http://www.w3.org/2000/svg">
<path d="M71.4688 58.0572H4.02422C1.80172 58.0572 0 56.2555 0 54.033V4.13359C0 1.91109 1.80172 0.109375 4.02422 0.109375H71.4688C73.6912 0.109375 75.493 1.91109 75.493 4.13359V54.033C75.493 56.2555 73.6912 58.0572 71.4688 58.0572Z" fill="#736572"/>
<path d="M80.0002 4.13359V54.033C80.0002 56.2559 78.1989 58.0572 75.9759 58.0572H71.147C73.37 58.0572 75.1712 56.2559 75.1712 54.033V52.4233L68.3477 33.9261L75.1712 5.74328V4.13359C75.1712 1.91063 73.37 0.109375 71.147 0.109375H75.9759C78.1989 0.109531 80.0002 1.91078 80.0002 4.13359Z" fill="#615260"/>
<path d="M74.3664 53.2284H5.63395C5.18941 53.2284 4.8291 52.868 4.8291 52.4235V15.4013L45.2914 10.1699L75.1711 15.4013V52.4235C75.1713 52.8679 74.8108 53.2284 74.3664 53.2284Z" fill="white"/>
<path d="M65.5133 31.0146H52.636L48.7856 28.6001L52.636 26.1855H65.5133C66.8467 26.1855 67.9278 27.2665 67.9278 28.6001C67.9277 29.9335 66.8467 31.0146 65.5133 31.0146Z" fill="#FCF1F2"/>
<path d="M52.6352 31.0146H14.4863C13.1529 31.0146 12.0718 29.9337 12.0718 28.6001C12.0718 27.2666 13.1527 26.1855 14.4863 26.1855H52.6352V31.0146Z" fill="#BAF39A"/>
<path d="M68.8643 10.3411L64.7083 15.4013H4.8291V5.74332C4.8291 5.29879 5.18941 4.93848 5.63394 4.93848H64.7083L68.8643 10.3411Z" fill="#FFE077"/>
<path d="M23.742 11.7799C22.8545 11.7799 22.1323 11.0577 22.1323 10.1702C22.1323 9.28273 22.8545 8.56055 23.742 8.56055C24.6295 8.56055 25.3517 9.28273 25.3517 10.1702C25.3517 11.0577 24.6295 11.7799 23.742 11.7799Z" fill="#FFC263"/>
<path d="M18.1077 11.7799C17.2202 11.7799 16.498 11.0577 16.498 10.1702C16.498 9.28273 17.2202 8.56055 18.1077 8.56055C18.9952 8.56055 19.7174 9.28273 19.7174 10.1702C19.7174 11.0577 18.9952 11.7799 18.1077 11.7799Z" fill="#FFC263"/>
<path d="M12.4744 11.7799C11.5869 11.7799 10.8647 11.0577 10.8647 10.1702C10.8647 9.28273 11.5869 8.56055 12.4744 8.56055C13.3619 8.56055 14.0841 9.28273 14.0841 10.1702C14.0841 11.0577 13.3619 11.7799 12.4744 11.7799Z" fill="#FFC263"/>
<path d="M64.708 4.93848H74.366C74.8105 4.93848 75.1708 5.29879 75.1708 5.74332V15.4013H64.708V4.93848Z" fill="#FFC263"/>
<path d="M40.0001 50.2502C39.3333 50.2502 38.793 49.7098 38.793 49.043V43.2482C38.793 42.5813 39.3334 42.041 40.0001 42.041C40.6669 42.041 41.2073 42.5815 41.2073 43.2482V49.043C41.2073 49.7098 40.667 50.2502 40.0001 50.2502Z" fill="#FCF1F2"/>
<path d="M46.5197 46.7891V45.8234C46.5197 42.8745 48.502 40.3887 51.2069 39.6259C51.7637 39.4688 54.51 40.8012 55.5833 43.029L62.3176 57.0079C63.9975 60.4948 64.8697 64.3154 64.8697 68.1857V70.4512C64.8697 74.0071 61.987 76.8898 58.4311 76.8898H58.753C55.197 76.8898 52.3144 74.0071 52.3144 70.4512C52.3144 68.9088 51.9919 67.3834 51.3675 65.9731L50.8492 64.8021C50.3336 63.6371 49.1794 62.8859 47.9055 62.8859H32.0958C30.8219 62.8859 29.6676 63.6371 29.152 64.8021L28.6337 65.9731C28.0094 67.3835 27.6869 68.9088 27.6869 70.4512C27.6869 74.0071 24.8042 76.8898 21.2483 76.8898H17.0631C13.5072 76.8898 10.6245 74.0071 10.6245 70.4512V68.1857C10.6245 64.3154 11.4969 60.4948 13.1767 57.0079L19.9111 43.029C20.9844 40.8012 23.2387 39.3848 25.7117 39.3848H27.0431C30.599 39.3848 33.4817 42.2674 33.4817 45.8234V46.7891C33.4817 47.6782 34.2023 48.3988 35.0914 48.3988H44.9103C45.799 48.3988 46.5197 47.6782 46.5197 46.7891Z" fill="#BCF1F8"/>
<path d="M69.3757 68.1865V70.4513C69.3757 74.0071 66.4929 76.8899 62.9372 76.8899H58.752C58.6473 76.8899 58.5428 76.8866 58.4398 76.8818C61.8411 76.7096 64.5468 73.8959 64.5468 70.4512V68.1863C64.5468 64.3151 63.6743 60.4954 61.9956 57.0073L55.2607 43.029C54.4479 41.3421 52.9573 40.1204 51.2061 39.6262C51.7631 39.4684 52.3506 39.3848 52.9573 39.3848H54.2886C56.7611 39.3848 59.0161 40.8013 60.0898 43.029L66.8247 57.0073C68.5034 60.4955 69.3757 64.3152 69.3757 68.1865Z" fill="#91F2F2"/>
<path d="M24.7078 59.6664C22.4853 59.6664 20.6836 57.8647 20.6836 55.6424C20.6836 53.4199 22.4853 51.6182 24.7078 51.6182C26.9303 51.6182 28.732 53.4199 28.732 55.6424C28.7319 57.8647 26.9303 59.6664 24.7078 59.6664Z" fill="white"/>
<path d="M59.3154 54.4352H56.4985V51.6183C56.4985 50.9514 55.958 50.4111 55.2913 50.4111C54.6244 50.4111 54.0841 50.9516 54.0841 51.6183V54.4352H51.2672C50.6004 54.4352 50.0601 54.9757 50.0601 55.6424C50.0601 56.3091 50.6005 56.8496 51.2672 56.8496H54.0841V59.6664C54.0841 60.3333 54.6246 60.8736 55.2913 60.8736C55.9582 60.8736 56.4985 60.3332 56.4985 59.6664V56.8496H59.3154C59.9823 56.8496 60.5226 56.3091 60.5226 55.6424C60.5226 54.9757 59.9821 54.4352 59.3154 54.4352Z" fill="white"/>
<path d="M45.6336 59.264H42.4142C41.7473 59.264 41.207 58.7235 41.207 58.0568C41.207 57.3901 41.7475 56.8496 42.4142 56.8496H45.6336C46.3005 56.8496 46.8408 57.3901 46.8408 58.0568C46.8408 58.7235 46.3005 59.264 45.6336 59.264Z" fill="#7DE8F9"/>
<path d="M37.5857 59.264H34.3664C33.6995 59.264 33.1592 58.7235 33.1592 58.0568C33.1592 57.3901 33.6996 56.8496 34.3664 56.8496H37.5857C38.2526 56.8496 38.7929 57.3901 38.7929 58.0568C38.7929 58.7235 38.2526 59.264 37.5857 59.264Z" fill="#7DE8F9"/>
<path d="M39.9995 44.6162C38.4437 44.6162 37.1826 43.3551 37.1826 41.7993C37.1826 40.2435 38.4437 38.9824 39.9995 38.9824C41.5553 38.9824 42.8164 40.2435 42.8164 41.7993C42.8164 43.3549 41.5553 44.6162 39.9995 44.6162Z" fill="#CBB0F2"/>
</svg>
