<svg width="50" height="51" viewBox="0 0 50 51" fill="none" xmlns="http://www.w3.org/2000/svg">
<circle cx="25" cy="25.5" r="25" fill="white"/>
<path d="M25 15.5C27.717 15.5 28.056 15.51 29.122 15.56C30.187 15.61 30.912 15.777 31.55 16.025C32.21 16.279 32.766 16.623 33.322 17.178C33.8305 17.6779 34.224 18.2826 34.475 18.95C34.722 19.587 34.89 20.313 34.94 21.378C34.987 22.444 35 22.783 35 25.5C35 28.217 34.99 28.556 34.94 29.622C34.89 30.687 34.722 31.412 34.475 32.05C34.2247 32.7178 33.8311 33.3226 33.322 33.822C32.822 34.3303 32.2173 34.7238 31.55 34.975C30.913 35.222 30.187 35.39 29.122 35.44C28.056 35.487 27.717 35.5 25 35.5C22.283 35.5 21.944 35.49 20.878 35.44C19.813 35.39 19.088 35.222 18.45 34.975C17.7823 34.7245 17.1775 34.3309 16.678 33.822C16.1694 33.3222 15.7759 32.7175 15.525 32.05C15.277 31.413 15.11 30.687 15.06 29.622C15.013 28.556 15 28.217 15 25.5C15 22.783 15.01 22.444 15.06 21.378C15.11 20.312 15.277 19.588 15.525 18.95C15.7752 18.2822 16.1688 17.6773 16.678 17.178C17.1777 16.6692 17.7824 16.2757 18.45 16.025C19.088 15.777 19.812 15.61 20.878 15.56C21.944 15.513 22.283 15.5 25 15.5ZM25 20.5C23.6739 20.5 22.4021 21.0268 21.4645 21.9645C20.5268 22.9021 20 24.1739 20 25.5C20 26.8261 20.5268 28.0979 21.4645 29.0355C22.4021 29.9732 23.6739 30.5 25 30.5C26.3261 30.5 27.5979 29.9732 28.5355 29.0355C29.4732 28.0979 30 26.8261 30 25.5C30 24.1739 29.4732 22.9021 28.5355 21.9645C27.5979 21.0268 26.3261 20.5 25 20.5ZM31.5 20.25C31.5 19.9185 31.3683 19.6005 31.1339 19.3661C30.8995 19.1317 30.5815 19 30.25 19C29.9185 19 29.6005 19.1317 29.3661 19.3661C29.1317 19.6005 29 19.9185 29 20.25C29 20.5815 29.1317 20.8995 29.3661 21.1339C29.6005 21.3683 29.9185 21.5 30.25 21.5C30.5815 21.5 30.8995 21.3683 31.1339 21.1339C31.3683 20.8995 31.5 20.5815 31.5 20.25ZM25 22.5C25.7956 22.5 26.5587 22.8161 27.1213 23.3787C27.6839 23.9413 28 24.7044 28 25.5C28 26.2956 27.6839 27.0587 27.1213 27.6213C26.5587 28.1839 25.7956 28.5 25 28.5C24.2044 28.5 23.4413 28.1839 22.8787 27.6213C22.3161 27.0587 22 26.2956 22 25.5C22 24.7044 22.3161 23.9413 22.8787 23.3787C23.4413 22.8161 24.2044 22.5 25 22.5Z" fill="#373737"/>
</svg>
