<svg width="50" height="51" viewBox="0 0 50 51" fill="none" xmlns="http://www.w3.org/2000/svg">
<circle cx="25" cy="25.5" r="25" fill="white"/>
<path d="M26.3102 33.8992C24.9879 34.1057 23.6355 33.9971 22.3631 33.5822C21.0907 33.1673 19.9343 32.4578 18.9879 31.5114C18.0416 30.5651 17.3321 29.4086 16.9171 28.1363C16.5022 26.8639 16.3936 25.5115 16.6002 24.1892C16.0789 23.1977 15.8884 22.0655 16.0566 20.958C16.2247 19.8505 16.7427 18.8259 17.5348 18.0338C18.3268 17.2417 19.3515 16.7237 20.459 16.5556C21.5664 16.3874 22.6987 16.5779 23.6902 17.0992C25.0125 16.8926 26.3648 17.0012 27.6372 17.4162C28.9096 17.8311 30.0661 18.5406 31.0124 19.4869C31.9588 20.4333 32.6683 21.5897 33.0832 22.8621C33.4981 24.1345 33.6067 25.4869 33.4002 26.8092C33.9214 27.8007 34.1119 28.9329 33.9437 30.0404C33.7756 31.1478 33.2576 32.1725 32.4655 32.9646C31.6735 33.7566 30.6488 34.2746 29.5413 34.4428C28.4339 34.6109 27.3016 34.4204 26.3102 33.8992ZM25.0522 30.6552H25.0122C27.8842 30.6552 29.3152 29.2692 29.3152 27.4122C29.3152 26.2142 28.7642 24.9412 26.5892 24.4542L24.6062 24.0142C23.8512 23.8422 22.9842 23.6142 22.9842 22.8992C22.9842 22.1842 23.6042 21.6862 24.7082 21.6862C26.9382 21.6862 26.7352 23.2142 27.8392 23.2142C28.4152 23.2142 28.9322 22.8722 28.9322 22.2842C28.9322 20.9142 26.7352 19.8842 24.8762 19.8842C22.8552 19.8842 20.7032 20.7432 20.7032 23.0282C20.7032 24.1262 21.0972 25.2982 23.2632 25.8412L25.9522 26.5122C26.7682 26.7142 26.9702 27.1712 26.9702 27.5842C26.9702 28.2712 26.2862 28.9422 25.0522 28.9422C22.6352 28.9422 22.9742 27.0852 21.6782 27.0852C21.0982 27.0852 20.6752 27.4832 20.6752 28.0562C20.6752 29.1702 22.0272 30.6542 25.0522 30.6542V30.6552Z" fill="#373737"/>
</svg>
    