<svg width="50" height="51" viewBox="0 0 50 51" fill="none" xmlns="http://www.w3.org/2000/svg">
<circle cx="25" cy="25.5" r="25" fill="white"/>
<g clip-path="url(#clip0_34717_6781)">
<path d="M35.1618 19.1569C34.3984 19.4946 33.5888 19.7164 32.7598 19.8149C33.6336 19.2923 34.2875 18.4699 34.5998 17.5009C33.7798 17.9889 32.8808 18.3309 31.9438 18.5159C31.3144 17.8425 30.4802 17.3959 29.5708 17.2455C28.6614 17.0951 27.7277 17.2494 26.9151 17.6844C26.1024 18.1193 25.4562 18.8106 25.0769 19.6507C24.6976 20.4908 24.6066 21.4327 24.8178 22.3299C23.1549 22.2466 21.5281 21.8144 20.0431 21.0616C18.5581 20.3087 17.2479 19.252 16.1978 17.9599C15.8261 18.5984 15.6308 19.3241 15.6318 20.0629C15.6318 21.5129 16.3698 22.7939 17.4918 23.5439C16.8278 23.523 16.1784 23.3437 15.5978 23.0209V23.0729C15.598 24.0386 15.9322 24.9745 16.5437 25.722C17.1551 26.4694 18.0063 26.9824 18.9528 27.1739C18.3364 27.3409 17.6901 27.3656 17.0628 27.2459C17.3297 28.0771 17.8498 28.8041 18.5504 29.325C19.251 29.8459 20.0969 30.1347 20.9698 30.1509C20.1023 30.8322 19.109 31.3359 18.0467 31.6331C16.9844 31.9303 15.8739 32.0152 14.7788 31.8829C16.6905 33.1123 18.9159 33.765 21.1888 33.7629C28.8818 33.7629 33.0888 27.3899 33.0888 21.8629C33.0888 21.6829 33.0838 21.5009 33.0758 21.3229C33.8947 20.7311 34.6014 19.9979 35.1628 19.1579L35.1618 19.1569Z" fill="#373737"/>
</g>
<defs>
<clipPath id="clip0_34717_6781">
<rect width="24" height="24" fill="white" transform="translate(13 13.5)"/>
</clipPath>
</defs>
</svg>
